<?xml version="1.0" encoding="utf-8"?>
<!-- Generator: Adobe Illustrator 19.2.1, SVG Export Plug-In . SVG Version: 6.00 Build 0)  -->
<svg version="1.1" id="layer" xmlns="http://www.w3.org/2000/svg" xmlns:xlink="http://www.w3.org/1999/xlink" x="0px" y="0px"
	 viewBox="0 0 652 652" style="enable-background:new 0 0 652 652;" xml:space="preserve">
<style type="text/css">
	.st0{fill:#2E2624;}
	.st1{fill:#E62310;}
	.st2{fill:#C60025;}
</style>
<g>
	<path class="st0" d="M219.4,363.8c0-2.4-0.6-3.2-0.6-3.2h-1.6c-0.7,0-1.5-0.1-2.1-0.5c-0.8-0.5-1.1-1.1-1.8-2.2
		c-0.7-1.2-4.8-7.8-4.8-7.8c3.1-1,5.9-2.3,7.8-6.6c1.1-2.4,1.5-6.2,1.5-9.5c0-3.3-0.4-9.8-3.3-13c-2.4-2.6-6-4.4-13.1-4.4h-19.3
		v49.5c0,0,1.1,0.8,4.1,0.8c3.1,0,4.1-0.8,4.1-0.8v-15.2h9.8c0,0,6.7,10.9,7.9,12.7c1,1.6,1.9,2.2,3,2.7c0.9,0.4,2.1,0.6,3.3,0.6
		c1.5,0,4.5,0,4.5,0S219.4,366.1,219.4,363.8 M207.6,342.2c-1.9,2.3-5.3,2.2-8.3,2.4h-4.7c-2.6,0.4-4.3,2.1-4.3,2.1V323h8.8
		c0.9,0,2.1,0,2.6,0c1.8,0.1,4.3,0.5,5.5,1.9c2.1,2.3,2.2,5.3,2.2,8.6v0.4C209.4,337.8,209,340.6,207.6,342.2"/>
	<path class="st0" d="M498.5,363.8c0-2.4-0.6-3.2-0.6-3.2h-1.6c-0.7,0-1.5-0.1-2.1-0.5c-0.8-0.5-1.1-1.1-1.8-2.2
		c-0.7-1.2-4.8-7.8-4.8-7.8c3.1-1,5.9-2.3,7.8-6.6c1.1-2.4,1.5-6.2,1.5-9.5c0-3.3-0.4-9.8-3.3-13c-2.4-2.6-6-4.4-13.1-4.4h-19.3
		v49.5c0,0,1.1,0.8,4.1,0.8c3.1,0,4.1-0.8,4.1-0.8v-15.2h9.8c0,0,6.7,10.9,7.9,12.7c1,1.6,1.9,2.2,3,2.7c0.9,0.4,2.1,0.6,3.3,0.6
		c1.5,0,4.5,0,4.5,0S498.5,366.1,498.5,363.8 M486.7,342.2c-1.9,2.3-5.3,2.2-8.3,2.4h-4.7c-2.6,0.4-4.3,2.1-4.3,2.1V323h8.8
		c0.9,0,2.1,0,2.6,0c1.8,0.1,4.3,0.5,5.5,1.9c2.1,2.3,2.2,5.3,2.2,8.6v0.4C488.4,337.8,488.1,340.6,486.7,342.2"/>
	<path class="st0" d="M304.3,316.6h-31l0,49.5c0,0,1.1,0.8,4.1,0.8c3.1,0,4.1-0.8,4.1-0.8l0-21.7h17.7c0,0,0.6-0.8,0.6-3.2
		c0-2.4-0.6-3.2-0.6-3.2h-13.4c-2.5,0.4-4.3,2.1-4.3,2.1V323h22.7c0,0,0.6-0.8,0.6-3.2S304.3,316.6,304.3,316.6"/>
	<path class="st0" d="M174.6,316.6h-37.7c0,0-0.6,0.8-0.6,3.2s0.6,3.2,0.6,3.2h14.7v43.2c0,0,1.1,0.8,4.1,0.8c3.1,0,4.1-0.8,4.1-0.8
		V323h14.7c0,0,0.6-0.8,0.6-3.2S174.6,316.6,174.6,316.6"/>
	<path class="st0" d="M626.3,316.6h-37.7c0,0-0.6,0.8-0.6,3.2s0.6,3.2,0.6,3.2h14.7v43.2c0,0,1.1,0.8,4.1,0.8c3.1,0,4.1-0.8,4.1-0.8
		V323h14.7c0,0,0.6-0.8,0.6-3.2S626.3,316.6,626.3,316.6"/>
	<path class="st0" d="M453.6,363.8c0-2.4-0.6-3.2-0.6-3.2h-24.3v-16.2H448c0,0,0.6-0.8,0.6-3.2s-0.6-3.2-0.6-3.2h-15
		c-2.6,0.4-4.3,2.1-4.3,2.1V323l23.2,0c0,0,0.6-0.8,0.6-3.2c0-2.4-0.6-3.2-0.6-3.2h-31.5v50.3H453
		C453,366.9,453.6,366.1,453.6,363.8"/>
	<path class="st0" d="M584.9,363.8c0-2.4-0.6-3.2-0.6-3.2H560v-16.2h19.3c0,0,0.6-0.8,0.6-3.2s-0.6-3.2-0.6-3.2h-15
		c-2.6,0.4-4.3,2.1-4.3,2.1V323l23.2,0c0,0,0.6-0.8,0.6-3.2c0-2.4-0.6-3.2-0.6-3.2h-31.5v50.3h32.5
		C584.3,366.9,584.9,366.1,584.9,363.8"/>
	<path class="st0" d="M312.4,317.5c0,0,1.1-0.8,4.1-0.8c3.1,0,4.1,0.8,4.1,0.8v48.7c0,0-1.1,0.8-4.1,0.8c-3.1,0-4.1-0.8-4.1-0.8
		V317.5"/>
	<path class="st0" d="M332.4,366.1c0,0,1.1,0.8,4.1,0.8c3.1,0,4.1-0.8,4.1-0.8v-21.7h5.4c0,0,10.9,17.4,12,19.2c1,1.6,1.9,2.2,3,2.7
		c0.9,0.4,2.1,0.6,3.3,0.6h4.5c0,0,0.6-0.8,0.6-3.2s-0.6-3.2-0.6-3.2h-1.6c-0.7,0-1.5-0.1-2.1-0.5c-0.8-0.5-1.1-1.1-1.8-2.2
		c-0.7-1.2-10.5-16.9-10.5-16.9l15.5-24.3h-8.7l-14,21.9h-5.1v-21.1c0,0-1.1-0.8-4.1-0.8c-3.1,0-4.1,0.8-4.1,0.8V366.1"/>
	<path class="st0" d="M508,366.1c0,0,1.1,0.8,4.1,0.8c3.1,0,4.1-0.8,4.1-0.8v-21.7h5.4c0,0,10.9,17.4,12,19.2c1,1.6,1.9,2.2,3,2.7
		c0.9,0.4,2.1,0.6,3.3,0.6h4.5c0,0,0.6-0.8,0.6-3.2s-0.6-3.2-0.6-3.2h-1.6c-0.7,0-1.5-0.1-2.1-0.5c-0.8-0.5-1.1-1.1-1.8-2.2
		c-0.7-1.2-10.5-16.9-10.5-16.9l15.5-24.3h-8.7l-14,21.9h-5.1v-21.1c0,0-1.1-0.8-4.1-0.8c-3.1,0-4.1,0.8-4.1,0.8V366.1"/>
	<path class="st0" d="M412.3,327.6c0.3-3.1,0.3-7.3,0.4-10.1c0,0-1.1-0.8-4.4-0.8c-3.3,0-4.4,0.8-4.4,0.8c0,2.8-0.2,7.3-0.5,12.4
		c-0.3,4.4-1.3,9-3,13.6c-2,5.5-7.2,15-7.2,15h-1c0,0-3.7-6.9-7.2-15c-1.1-2.7-2.8-10.3-3-13.6c-0.3-5.1-0.5-9.6-0.5-12.4
		c0,0-1.1-0.8-4.4-0.8c-3.3,0-4.4,0.8-4.4,0.8c0,2.8,0.1,7,0.4,10.1c0.3,2.7,0.8,8.1,2.2,12.1c3,8.1,13.9,27.3,13.9,27.3h7.1
		c0,0,11-19.2,13.9-27.3C411.4,335.9,412,331.3,412.3,327.6"/>
	<path class="st0" d="M257.5,366.1c-0.1-3.1-0.9-12.5-0.9-12.5h-22.1c0,0-0.8,9.1-1,12.5c0,0-0.9,0.8-4,0.8c-3.1,0-4-0.8-4-0.8
		c0-0.9,0.2-7.6,0.8-12c1.4-10.1,5-17.5,6.1-19.8c1.2-2.4,6.2-12.4,9.7-17.7h6.8c3.3,4.8,8.6,15.4,9.7,17.7c1.1,2.3,5.1,11,6.1,19.8
		c0.5,4.4,0.8,9.7,0.7,12c0,0-0.9,0.8-4,0.8S257.5,366.1,257.5,366.1 M245.1,325.2c-1.2,2.5-3.9,7.4-5.2,10.3
		c-1.8,4.1-3.6,9.4-4.6,14c0,0,1.8-1.8,4.4-2.1h15.6c-1-4.4-2.7-8.6-4.1-11.8c-1.5-3.7-4-8-5.1-10.3H245.1z"/>
	<path class="st1" d="M67.6,385.6c26.1,0,37.9-19.3,38.7-25c-4.2,6.1-20.4,15.4-38.7,15.4c-18.3,0-34.5-9.3-38.7-15.4
		C29.7,366.4,41.5,385.6,67.6,385.6"/>
	<path class="st1" d="M67.6,271.8c-0.5,0-1,0.4-1,1c0,0.5,0.5,1,1,1c0.6,0,1-0.5,1-1C68.6,272.3,68.2,271.8,67.6,271.8"/>
	<path class="st1" d="M67.6,287.1"/>
	<path class="st1" d="M73.2,287.6c0-0.2,0.3-0.4,0.6-0.4c6.4,2.7,12.2,7.3,16,11.9c2.6,3.1,4.2,6.9,3.5,10.3c-0.5,2.8-3,4.8-5.9,4.4
		c-2.9-0.4-4.8-3-4.4-5.9c0.3-3,3.4-4.3,3.4-4.3C84.2,295.6,78.5,290.4,73.2,287.6"/>
	<path class="st1" d="M62.1,287.6c0-0.2-0.3-0.4-0.6-0.4c-6.4,2.7-12.2,7.3-16,11.9c-2.6,3.1-4.2,6.9-3.5,10.3
		c0.5,2.8,3,4.8,5.9,4.4c2.9-0.4,4.8-3,4.4-5.9c-0.3-3-3.4-4.3-3.4-4.3C51,295.6,56.7,290.4,62.1,287.6"/>
	<path class="st1" d="M67,289.1c-1.6,5.1-4.7,15.5-4.7,18.6c0,3.1,2.2,5.7,5.3,5.7c3.1,0,5.3-2.5,5.3-5.7c0-3.1-3.1-13.5-4.7-18.6
		C68,288.9,67.3,288.9,67,289.1"/>
	<path class="st1" d="M75,330.2c3.9,0,17.2,0.4,17.2,0.4c4.8-1.4,7.2-4.8,7.9-10.7c0,0-15.2-0.7-32.5-0.7c-17.3,0-32.4,0.7-32.4,0.7
		c0.8,6,3.2,9.3,7.9,10.7c0,0,13.3-0.4,17.2-0.4v30.6c0,1.5,3.3,3.7,7.3,3.7c3.9,0,7.4-2.1,7.4-3.7v-22.9c-1.6-5.1-5.9-7.7-5.9-7.8
		L75,330.2"/>
	<path class="st2" d="M67.6,270.9c0.7,0,1.4-0.6,1.4-1.3c0-0.8-0.6-1.3-1.4-1.3c-0.7,0-1.3,0.6-1.3,1.3
		C66.3,270.3,66.9,270.9,67.6,270.9"/>
	<path class="st2" d="M64.4,274.2c0.7,0,1.3-0.6,1.3-1.3c0-0.7-0.6-1.3-1.3-1.3c-0.8,0-1.4,0.6-1.4,1.3
		C63.1,273.6,63.7,274.2,64.4,274.2"/>
	<path class="st2" d="M70.9,274.2c0.7,0,1.3-0.6,1.3-1.3c0-0.7-0.6-1.3-1.3-1.3c-0.8,0-1.3,0.6-1.3,1.3
		C69.5,273.6,70.1,274.2,70.9,274.2"/>
	<path class="st2" d="M37.8,348.7c0,0-2.1-8.2-9.3-7.9c-2.8,5.3-1.6,10.9,1.8,16.1c3,4.6,10.6,9.6,15.9,10.3
		C46.2,367.2,34.6,358.8,37.8,348.7"/>
	<path class="st2" d="M97.4,348.7c0,0,2.1-8.2,9.3-7.9c2.8,5.3,1.6,10.9-1.8,16.1c-3,4.6-10.6,9.6-15.9,10.3
		C89.1,367.2,100.7,358.8,97.4,348.7"/>
	<path class="st2" d="M67.6,277.4c0.7,0,1.4-0.6,1.4-1.3c0-0.7-0.6-1.4-1.4-1.4c-0.7,0-1.3,0.6-1.3,1.4
		C66.3,276.8,66.9,277.4,67.6,277.4"/>
	<path class="st2" d="M67.6,285.3c2,0,3.6-1.6,3.6-3.6c0-2-1.6-3.6-3.6-3.6c-2,0-3.6,1.6-3.6,3.6C64,283.7,65.7,285.3,67.6,285.3"/>
	<path class="st2" d="M108.4,300.6c-5.9-6.9-17.4-12.8-32.5-15.5c-0.2,0.1-0.3,0.2-0.3,0.4c14.2,3.7,21.7,9,28.6,16.7
		c-2,0.6-3.7,2.1-4.6,4.2c-1.3,3.3,0.4,6.9,3.9,8.7L108.4,300.6"/>
	<path class="st2" d="M26.9,300.6c5.9-6.9,17.4-12.8,32.5-15.5c0.2,0.1,0.3,0.2,0.3,0.4c-14.2,3.7-21.7,9-28.6,16.7
		c2,0.6,3.7,2.1,4.6,4.2c1.3,3.3-0.4,6.9-3.9,8.7L26.9,300.6"/>
</g>
</svg>
